{
  "accessors": [
    {
      "bufferView": 1,
      "componentType": 5126,
      "count": 240,
      "max": [
        0.95105999708175659,
        1,
        1
      ],
      "min": [
        -0.95105999708175659,
        -1,
        -1
      ],
      "type": "VEC3"
    },
    {
      "bufferView": 1,
      "byteOffset": 2880,
      "componentType": 5126,
      "count": 240,
      "max": [
        0.99207723140716553,
        0.94352102279663086,
        0.94352495670318604
      ],
      "min": [
        -0.99207723140716553,
        -0.94352102279663086,
        -0.94352495670318604
      ],
      "type": "VEC3"
    },
    {
      "bufferView": 0,
      "componentType": 5125,
      "count": 240,
      "max": [
        239
      ],
      "min": [
        0
      ],
      "type": "SCALAR"
    },
    {
      "bufferView": 1,
      "byteOffset": 5760,
      "componentType": 5126,
      "count": 278,
      "max": [
        0.32464998960494995,
        3.4468200206756592,
        2.6298599243164062
      ],
      "min": [
        -10.778820037841797,
        -10.535129547119141,
        -3.4217898845672607
      ],
      "type": "VEC3"
    },
    {
      "bufferView": 1,
      "byteOffset": 9096,
      "componentType": 5126,
      "count": 278,
      "max": [
        0.99418520927429199,
        0.99986451864242554,
        0.94696807861328125
      ],
      "min": [
        -0.99298989772796631,
        -0.94697314500808716,
        -1
      ],
      "type": "VEC3"
    },
    {
      "bufferView": 0,
      "byteOffset": 960,
      "componentType": 5125,
      "count": 516,
      "max": [
        277
      ],
      "min": [
        0
      ],
      "type": "SCALAR"
    },
    {
      "bufferView": 1,
      "byteOffset": 12432,
      "componentType": 5126,
      "count": 1806,
      "max": [
        5.5111398696899414,
        2.846060037612915,
        1.2592300176620483
      ],
      "min": [
        -11.754690170288086,
        -3.2326300144195557,
        -1.2592300176620483
      ],
      "type": "VEC3"
    },
    {
      "bufferView": 1,
      "byteOffset": 34104,
      "componentType": 5126,
      "count": 1806,
      "max": [
        1,
        0.99959832429885864,
        1
      ],
      "min": [
        -1,
        -0.9999995231628418,
        -1
      ],
      "type": "VEC3"
    },
    {
      "bufferView": 0,
      "byteOffset": 3024,
      "componentType": 5125,
      "count": 2802,
      "max": [
        1805
      ],
      "min": [
        0
      ],
      "type": "SCALAR"
    },
    {
      "bufferView": 1,
      "byteOffset": 55776,
      "componentType": 5126,
      "count": 277,
      "max": [
        4.4137101173400879,
        -3.210939884185791,
        1.0188000202178955
      ],
      "min": [
        -5.6109399795532227,
        -3.4095299243927002,
        -1.0188000202178955
      ],
      "type": "VEC3"
    },
    {
      "bufferView": 1,
      "byteOffset": 59100,
      "componentType": 5126,
      "count": 277,
      "max": [
        0.68949103355407715,
        0.93841022253036499,
        0.97075706720352173
      ],
      "min": [
        -0.27539882063865662,
        -1,
        -0.97075706720352173
      ],
      "type": "VEC3"
    },
    {
      "bufferView": 0,
      "byteOffset": 14232,
      "componentType": 5125,
      "count": 408,
      "max": [
        276
      ],
      "min": [
        0
      ],
      "type": "SCALAR"
    },
    {
      "bufferView": 1,
      "byteOffset": 62424,
      "componentType": 5126,
      "count": 278,
      "max": [
        0.32464998960494995,
        3.4468200206756592,
        2.6298599243164062
      ],
      "min": [
        -10.778820037841797,
        -10.535129547119141,
        -3.4217898845672607
      ],
      "type": "VEC3"
    },
    {
      "bufferView": 1,
      "byteOffset": 65760,
      "componentType": 5126,
      "count": 278,
      "max": [
        0.99418520927429199,
        0.99986451864242554,
        0.94696807861328125
      ],
      "min": [
        -0.99298989772796631,
        -0.94697314500808716,
        -1
      ],
      "type": "VEC3"
    },
    {
      "bufferView": 0,
      "byteOffset": 15864,
      "componentType": 5125,
      "count": 516,
      "max": [
        277
      ],
      "min": [
        0
      ],
      "type": "SCALAR"
    },
    {
      "bufferView": 1,
      "byteOffset": 69096,
      "componentType": 5126,
      "count": 240,
      "max": [
        0.95105999708175659,
        1,
        1
      ],
      "min": [
        -0.95105999708175659,
        -1,
        -1
      ],
      "type": "VEC3"
    },
    {
      "bufferView": 1,
      "byteOffset": 71976,
      "componentType": 5126,
      "count": 240,
      "max": [
        0.99207723140716553,
        0.94352102279663086,
        0.94352495670318604
      ],
      "min": [
        -0.99207723140716553,
        -0.94352102279663086,
        -0.94352495670318604
      ],
      "type": "VEC3"
    },
    {
      "bufferView": 0,
      "byteOffset": 17928,
      "componentType": 5125,
      "count": 240,
      "max": [
        239
      ],
      "min": [
        0
      ],
      "type": "SCALAR"
    }
  ],
  "asset": {
    "extras": {
      "author": "Zafflex (https://sketchfab.com/Zafflex)",
      "license": "CC-BY-4.0 (http://creativecommons.org/licenses/by/4.0/)",
      "source": "https://sketchfab.com/3d-models/low-poly-moose-9ba6aeef039f458eb998cbdd672b3952",
      "title": "Low-poly Moose"
    },
    "generator": "Sketchfab-6.31.0",
    "version": "2.0"
  },
  "bufferViews": [
    {
      "buffer": 0,
      "byteLength": 18888,
      "byteOffset": 0,
      "name": "floatBufferViews",
      "target": 34963
    },
    {
      "buffer": 0,
      "byteLength": 74856,
      "byteOffset": 18888,
      "byteStride": 12,
      "name": "floatBufferViews",
      "target": 34962
    }
  ],
  "buffers": [
    {
      "byteLength": 93744,
      "uri": "scene.bin"
    }
  ],
  "materials": [
    {
      "doubleSided": true,
      "emissiveFactor": [
        0,
        0,
        0
      ],
      "name": "Black",
      "pbrMetallicRoughness": {
        "baseColorFactor": [
          0,
          0,
          0,
          1
        ],
        "metallicFactor": 0,
        "roughnessFactor": 0.59999999999999998
      }
    },
    {
      "doubleSided": true,
      "emissiveFactor": [
        0,
        0,
        0
      ],
      "name": "Horn",
      "pbrMetallicRoughness": {
        "baseColorFactor": [
          0.2330147028,
          0.16586621109999999,
          0.1113937646,
          1
        ],
        "metallicFactor": 0,
        "roughnessFactor": 0.59999999999999998
      }
    },
    {
      "doubleSided": true,
      "emissiveFactor": [
        0,
        0,
        0
      ],
      "name": "Moose",
      "pbrMetallicRoughness": {
        "baseColorFactor": [
          0.066806390899999998,
          0.0344287343,
          0.014153800899999999,
          1
        ],
        "metallicFactor": 0,
        "roughnessFactor": 0.59999999999999998
      }
    },
    {
      "doubleSided": true,
      "emissiveFactor": [
        0,
        0,
        0
      ],
      "name": "Black.001",
      "pbrMetallicRoughness": {
        "baseColorFactor": [
          0,
          0,
          0,
          1
        ],
        "metallicFactor": 0,
        "roughnessFactor": 0.59999999999999998
      }
    }
  ],
  "meshes": [
    {
      "name": "Icosphere.001_0",
      "primitives": [
        {
          "attributes": {
            "NORMAL": 1,
            "POSITION": 0
          },
          "indices": 2,
          "material": 3,
          "mode": 4
        }
      ]
    },
    {
      "name": "Plane.002_0",
      "primitives": [
        {
          "attributes": {
            "NORMAL": 4,
            "POSITION": 3
          },
          "indices": 5,
          "material": 1,
          "mode": 4
        }
      ]
    },
    {
      "name": "Plane_0",
      "primitives": [
        {
          "attributes": {
            "NORMAL": 7,
            "POSITION": 6
          },
          "indices": 8,
          "material": 2,
          "mode": 4
        }
      ]
    },
    {
      "name": "Plane_1",
      "primitives": [
        {
          "attributes": {
            "NORMAL": 10,
            "POSITION": 9
          },
          "indices": 11,
          "material": 3,
          "mode": 4
        }
      ]
    },
    {
      "name": "Plane.001_0",
      "primitives": [
        {
          "attributes": {
            "NORMAL": 13,
            "POSITION": 12
          },
          "indices": 14,
          "material": 1,
          "mode": 4
        }
      ]
    },
    {
      "name": "Icosphere_0",
      "primitives": [
        {
          "attributes": {
            "NORMAL": 16,
            "POSITION": 15
          },
          "indices": 17,
          "material": 0,
          "mode": 4
        }
      ]
    }
  ],
  "nodes": [
    {
      "children": [
        1
      ],
      "name": "RootNode (gltf orientation matrix)",
      "rotation": [
        -0.70710678118654746,
        -0,
        -0,
        0.70710678118654757
      ]
    },
    {
      "children": [
        2
      ],
      "name": "RootNode (model correction matrix)"
    },
    {
      "children": [
        3,
        5,
        7,
        10,
        12
      ],
      "name": "Root"
    },
    {
      "children": [
        4
      ],
      "matrix": [
        0.047020000000000006,
        0,
        0,
        0,
        0,
        0.047020000000000006,
        0,
        0,
        0,
        0,
        0.047020000000000006,
        0,
        0.85855000000000004,
        0.15000000000000002,
        1.8727,
        1
      ],
      "name": "Icosphere.001"
    },
    {
      "mesh": 0,
      "name": "Icosphere.001_0"
    },
    {
      "children": [
        6
      ],
      "matrix": [
        -0.060520000000000011,
        0,
        -0.12366000000000002,
        0,
        -0.12366000000000002,
        0,
        0.060520000000000011,
        0,
        -0,
        -0.13766999999999999,
        0,
        0,
        0.90899000000000008,
        -0.64557000000000009,
        1.84657,
        1
      ],
      "name": "Plane.002"
    },
    {
      "mesh": 1,
      "name": "Plane.002_0"
    },
    {
      "children": [
        8,
        9
      ],
      "matrix": [
        0.25375999999999999,
        0,
        0,
        0,
        0,
        -0,
        0.58600000000000008,
        0,
        0,
        -0.58600000000000008,
        -0,
        0,
        3.0203200000000003,
        0,
        0.28907000000000005,
        1
      ],
      "name": "Plane"
    },
    {
      "mesh": 2,
      "name": "Plane_0"
    },
    {
      "mesh": 3,
      "name": "Plane_1"
    },
    {
      "children": [
        11
      ],
      "matrix": [
        -0.060520000000000011,
        0,
        -0.12366000000000002,
        0,
        -0.12366000000000002,
        -0,
        0.060520000000000011,
        0,
        -0,
        0.13766999999999999,
        0,
        0,
        0.90899000000000008,
        0.64068000000000014,
        1.84657,
        1
      ],
      "name": "Plane.001"
    },
    {
      "mesh": 4,
      "name": "Plane.001_0"
    },
    {
      "children": [
        13
      ],
      "matrix": [
        0.047020000000000006,
        0,
        0,
        0,
        0,
        0.047020000000000006,
        0,
        0,
        0,
        0,
        0.047020000000000006,
        0,
        0.85855000000000004,
        -0.15000000000000002,
        1.8727,
        1
      ],
      "name": "Icosphere"
    },
    {
      "mesh": 5,
      "name": "Icosphere_0"
    }
  ],
  "scene": 0,
  "scenes": [
    {
      "name": "OSG_Scene",
      "nodes": [
        0
      ]
    }
  ]
}

